<?xml version="1.0" standalone="no"?>
<!DOCTYPE svg PUBLIC "-//W3C//DTD SVG 20010904//EN"
 "http://www.w3.org/TR/2001/REC-SVG-20010904/DTD/svg10.dtd">
<svg version="1.0" xmlns="http://www.w3.org/2000/svg"
 width="618.000000pt" height="618.000000pt" viewBox="0 0 618.000000 618.000000"
 preserveAspectRatio="xMidYMid meet">
<metadata>
Created by potrace 1.14, written by Peter Selinger 2001-2017
</metadata>
<g transform="translate(0.000000,618.000000) scale(0.100000,-0.100000)"
fill="#000000" stroke="none">
<path d="M1699 6175 c-1 0 -2 -115 -3 -255 l-2 -255 -262 -392 -262 -393 0
-916 0 -917 262 -394 263 -395 1 -242 c1 -132 2 -247 3 -253 1 -9 23 -13 76
-13 l75 0 1 38 c0 20 0 132 0 247 l0 211 269 403 269 403 0 911 0 911 -207
311 c-114 170 -209 315 -212 320 -10 19 -105 160 -112 165 -4 3 -7 100 -7 215
0 116 0 228 0 250 l-1 40 -75 0 c-41 0 -76 0 -76 0z"/>
<path d="M3069 6141 c0 -20 0 -133 0 -251 l0 -215 -266 -400 -266 -400 0 -912
0 -912 265 -400 266 -399 0 -218 c0 -121 1 -234 1 -252 l1 -33 78 3 77 3 1
250 0 250 265 396 264 397 -1 918 -1 919 -264 395 -263 395 -1 248 c0 136 -2
247 -5 248 -3 1 -38 2 -77 3 l-73 2 -1 -35z"/>
<path d="M4445 6173 c-6 -2 -10 -101 -9 -250 l1 -248 -264 -398 -265 -399 0
-915 0 -915 264 -395 263 -396 2 -226 c1 -124 2 -238 2 -254 l1 -27 77 2 78 3
0 250 1 250 264 395 264 395 1 915 0 915 -265 400 -266 400 1 248 c0 160 -3
247 -10 248 -30 3 -132 5 -140 2z"/>
<path d="M3996 1789 c-44 -96 -109 -233 -183 -389 -61 -127 -103 -216 -166
-350 -19 -41 -72 -151 -116 -244 -45 -93 -81 -170 -81 -171 0 -2 -45 -96 -100
-210 -55 -114 -100 -209 -100 -211 0 -2 -18 -40 -40 -85 -22 -45 -40 -85 -40
-90 0 -4 61 -7 135 -8 l136 0 33 72 c19 39 63 134 100 210 l66 137 373 0 372
0 85 -208 85 -207 138 -3 c75 -1 137 -1 137 2 0 4 -127 299 -330 766 -56 129
-107 249 -115 265 -7 17 -20 46 -28 65 -8 19 -61 141 -117 270 -56 129 -110
253 -120 275 -10 22 -30 69 -45 105 -15 36 -31 69 -36 74 -5 5 -23 -22 -43
-65z m154 -794 c62 -143 119 -272 126 -287 8 -16 11 -29 7 -29 -36 -6 -533 -2
-533 4 0 4 16 40 35 80 19 39 35 78 35 84 0 7 5 13 10 13 6 0 10 8 10 18 0 10
4 22 9 27 4 6 31 60 59 120 95 208 115 246 122 238 4 -4 58 -125 120 -268z"/>
<path d="M2390 1780 c-384 -79 -649 -339 -714 -701 -19 -107 -15 -308 9 -404
75 -311 312 -551 630 -636 58 -16 117 -23 215 -25 160 -4 244 11 370 65 l85
36 1 148 c1 81 0 147 -2 147 -2 0 -34 -19 -71 -43 -37 -24 -84 -50 -103 -57
-19 -7 -40 -17 -46 -21 -48 -37 -268 -45 -378 -15 -168 47 -331 175 -400 316
-116 238 -87 543 70 729 85 103 218 182 365 217 46 12 216 13 254 3 20 -6 47
-12 58 -15 24 -4 149 -65 192 -94 61 -40 65 -41 66 -28 7 73 2 273 -6 283 -12
15 -151 68 -238 91 -89 24 -253 25 -357 4z"/>
<path d="M63 1762 l-21 -3 3 -627 c3 -696 1 -680 71 -812 34 -65 118 -160 179
-201 47 -31 145 -75 200 -89 76 -18 89 -20 162 -22 242 -7 460 100 574 280 37
58 77 182 85 264 9 82 9 1196 1 1204 -7 8 -245 9 -252 2 -2 -2 -5 -258 -6
-569 -1 -591 -5 -658 -46 -750 -40 -90 -121 -157 -222 -184 -45 -12 -157 -13
-206 -1 -86 19 -190 97 -227 170 -57 112 -61 158 -61 804 0 294 -4 532 -8 533
-29 3 -208 3 -226 1z"/>
<path d="M5127 1760 c-10 -4 -12 -196 -12 -869 l-1 -863 311 5 c339 5 362 8
478 70 163 86 249 246 242 447 -8 198 -104 338 -268 390 l-38 12 60 56 c88 84
124 183 116 324 -12 237 -183 404 -432 424 -98 8 -440 11 -456 4z m509 -260
c39 -13 99 -74 119 -123 21 -50 21 -143 0 -193 -43 -104 -115 -158 -225 -169
-109 -11 -139 -12 -149 -5 -7 4 -12 98 -13 258 l-3 251 65 3 c69 3 155 -6 206
-22z m95 -728 c48 -16 115 -75 142 -126 31 -58 31 -192 0 -251 -56 -106 -155
-141 -403 -140 l-105 0 -1 267 -1 267 166 -3 c91 -2 182 -8 202 -14z"/>
</g>
</svg>
